<?xml version="1.0" encoding="UTF-8"?>
<svg width="20px" height="12px" viewBox="0 0 20 12" version="1.1" xmlns="http://www.w3.org/2000/svg" xmlns:xlink="http://www.w3.org/1999/xlink">
    <!-- Generator: Sketch 50 (54983) - http://www.bohemiancoding.com/sketch -->
    <title>Group</title>
    <desc>Created with Sketch.</desc>
    <defs></defs>
    <g id="Page-1" stroke="none" stroke-width="1" fill="none" fill-rule="evenodd">
        <g id="Desktop-HD-Copy-27" transform="translate(-252.000000, -658.000000)" fill="#000000" fill-rule="nonzero">
            <g id="Group" transform="translate(262.000000, 664.000000) scale(-1, -1) rotate(90.000000) translate(-262.000000, -664.000000) translate(256.000000, 654.000000)">
                <path d="M11.6834502,12.3576749 C11.2613402,11.880775 10.5769858,11.880775 10.1548758,12.3576749 L5.9999902,17.0518648 L1.84515687,12.3576749 C1.42304688,11.8808341 0.73864023,11.880775 0.316582496,12.3576749 C-0.105527499,12.8345748 -0.105527499,13.6077584 0.316582496,14.0846583 L5.23572914,19.6423103 C5.43844855,19.8713427 5.7133923,20 6.00004246,20 C6.28674488,20 6.56163637,19.8713427 6.76435578,19.6423103 L11.6835024,14.0846583 C12.1055079,13.6078175 12.1055079,12.8345748 11.6834502,12.3576749 Z" id="Shape"></path>
                <path d="M6,0 C5.44768398,0 5,0.449503653 5,1.00395621 L5,16.9960438 C5,17.5505449 5.44773233,18 6,18 C6.55231602,18 7,17.5505449 7,16.9960438 L7,1.00395621 C7,0.449503653 6.55231602,0 6,0 Z" id="Shape"></path>
            </g>
        </g>
    </g>
</svg>