<?xml version="1.0" encoding="UTF-8"?>
<svg width="251px" height="313px" viewBox="0 0 251 313" version="1.1" xmlns="http://www.w3.org/2000/svg" xmlns:xlink="http://www.w3.org/1999/xlink">
    <!-- Generator: Sketch 50 (54983) - http://www.bohemiancoding.com/sketch -->
    <title>Group</title>
    <desc>Created with Sketch.</desc>
    <defs></defs>
    <g id="Page-1" stroke="none" stroke-width="1" fill="none" fill-rule="evenodd">
        <g id="Desktop-HD-Copy-32" transform="translate(-519.000000, -399.000000)" fill="#000000" fill-rule="nonzero" stroke="#FFFFFF" stroke-width="7">
            <g id="Group" transform="translate(523.000000, 403.000000)">
                <path d="M66.5,124 C62.355468,124 59,127.355469 59,131.5 L59,142.078125 C59,146.222656 62.355468,149.578125 66.5,149.578125 C70.640625,149.578125 74,146.222656 74,142.078125 L74,131.5 C74,127.359375 70.640625,124 66.5,124 Z" id="Shape"></path>
                <path d="M175.5,124 C171.359375,124 168,127.355469 168,131.5 L168,142.078125 C168,146.222656 171.359375,149.578125 175.5,149.578125 C179.644531,149.578125 183,146.222656 183,142.078125 L183,131.5 C183,127.359375 179.644531,124 175.5,124 Z" id="Shape"></path>
                <path d="M135.899851,146.852977 C132.782664,144.126414 128.044383,144.446727 125.31782,147.563914 C124.34907,148.669383 122.860789,149.306102 121.231883,149.306102 C119.602977,149.306102 118.114695,148.669383 117.145945,147.563914 C114.419383,144.446727 109.685008,144.126414 106.563914,146.852977 C103.446727,149.579539 103.126414,154.317821 105.852977,157.435008 C109.669383,161.802195 115.274851,164.306102 121.231883,164.306102 C127.188914,164.306102 132.794383,161.802195 136.610789,157.435008 C139.337351,154.317821 139.017039,149.579539 135.899851,146.852977 Z" id="Shape"></path>
                <path d="M243.363281,135.11742 C243.363281,135.101796 243.367188,135.090077 243.367188,135.078358 C243.367188,96.1369519 242.460938,64.1408579 240.671875,39.9807019 C238.898438,16.0197639 216.425781,-2.50758009 192.59375,0.277576905 C168.84375,3.05882691 144.988281,4.46898291 121.683594,4.46898291 C95.402344,4.46898291 62.0625,7.09398291 37.285156,27.5705459 C12.195312,48.3049199 0,83.4689829 0,135.078358 C0,181.441639 27.722656,221.636952 67.929688,240.918202 C55.949219,251.96117 37.511719,272.972889 37.511719,297.640858 C37.511719,301.781483 40.871094,305.140858 45.011719,305.140858 L198.351562,305.140858 C202.496094,305.140858 205.851562,301.781483 205.851562,297.640858 C205.851562,272.96117 187.640625,252.121327 175.40625,240.92992 C215.601562,221.664296 243.320312,181.49242 243.363281,135.11742 Z M46.84375,39.1330459 C63.296875,25.5314829 86.378906,19.4689829 121.683594,19.4689829 C145.566406,19.4689829 170.011719,18.0236699 194.339844,15.1760139 C210.007812,13.3439829 224.546875,25.3400769 225.710938,41.0861699 C226.898438,57.0900769 227.6875,76.6369519 228.078125,99.4611699 C227.707031,99.0275769 227.328125,98.5939829 226.9375,98.1603889 C206.410156,75.3478889 171,63.7775769 121.683594,63.7775769 C96.222656,63.7775769 69.472656,66.5236699 45.945312,77.1760139 C35.636719,81.8439829 26.027344,88.1369519 18.160156,96.3088269 C18.078125,96.3947639 17.988281,96.4767959 17.910156,96.5627329 C22.355469,70.3947639 31.933594,51.4533579 46.84375,39.1330459 Z M83.605469,247.17992 C84.125,247.347889 94.734375,250.250233 99.609375,251.125233 L99.609375,253.644764 C99.609375,258.601796 101.253906,263.17992 104.023438,266.871327 L100.628906,290.140858 L53.285156,290.140858 C57.339844,270.14867 76.246094,253.152577 83.605469,247.17992 Z M126.390625,258.902577 C125.121094,260.066639 123.402344,260.715077 121.683594,260.715077 C117.855469,260.715077 114.609375,257.46117 114.609375,253.640858 L114.609375,252.879139 C116.964844,253.015858 119.328125,253.074452 121.683594,253.074452 C124.039062,253.074452 126.402344,253.011952 128.753906,252.879139 L128.753906,253.640858 C128.753906,255.703358 127.863281,257.551014 126.453125,258.847889 C126.433594,258.86742 126.410156,258.883046 126.390625,258.902577 Z M115.785156,290.140858 L117.9375,275.394764 C117.960938,275.39867 117.984375,275.39867 118.003906,275.402577 C120.464844,275.793202 122.898438,275.781483 125.359375,275.402577 C125.382812,275.39867 125.40625,275.39867 125.429688,275.394764 L127.582031,290.140858 L115.785156,290.140858 Z M159.761719,247.17992 C167.121094,253.14867 186.027344,270.14867 190.082031,290.140858 L142.738281,290.140858 L139.34375,266.86742 C142.113281,263.17992 143.753906,258.601796 143.753906,253.640858 L143.753906,251.125233 C144.007812,251.082264 159.230469,247.347889 159.761719,247.17992 Z M156.410156,232.468983 C134.0625,239.918202 109.304688,239.894764 86.953125,232.468983 C45.15625,218.535389 15.046875,180.191639 15,135.172108 C14.980469,112.531483 37.640625,96.5861699 56.550781,89.0900769 C56.636719,89.0549199 56.722656,89.0197639 56.808594,88.9846079 C77.332031,80.8908579 99.785156,78.7775769 121.683594,78.7775769 C152.140625,78.7775769 188.488281,82.5861699 211.941406,104.297108 C220.335938,112.070546 227.804688,123.355702 228.363281,135.125233 C228.363281,135.144764 228.363281,135.160389 228.367188,135.176014 C228.320312,180.191639 198.207031,218.535389 156.410156,232.468983 Z" id="Shape"></path>
            </g>
        </g>
    </g>
</svg>