<?xml version="1.0" encoding="UTF-8"?>
<svg width="23px" height="26px" viewBox="0 0 23 26" version="1.1" xmlns="http://www.w3.org/2000/svg" xmlns:xlink="http://www.w3.org/1999/xlink">
    <!-- Generator: Sketch 50 (54983) - http://www.bohemiancoding.com/sketch -->
    <title>Group 2</title>
    <desc>Created with Sketch.</desc>
    <defs></defs>
    <g id="Page-1" stroke="none" stroke-width="1" fill="none" fill-rule="evenodd">
        <g id="Desktop-HD-Copy-27" transform="translate(-415.000000, -306.000000)" fill="#000000" fill-rule="nonzero">
            <g id="Group-2" transform="translate(415.000000, 306.000000)">
                <path d="M21.9767818,18 C21.4116966,18 20.9536625,18.4657943 20.9536625,19.0404533 L20.9536625,22.5918892 C20.9536625,23.3237079 20.3681961,23.9190432 19.6486191,23.9190432 L3.351282,23.9190432 C2.63165547,23.9190432 2.04623852,23.3236576 2.04623852,22.5918892 L2.04623852,19.0404533 C2.04623852,18.4657943 1.58815495,18 1.02311926,18 C0.458083568,18 0,18.4657943 0,19.0404533 L0,22.5918892 C0,24.4711142 1.50341444,26 3.35133147,26 L19.6486685,26 C21.496635,26 23,24.4711142 23,22.5918892 L23,19.0404533 C22.9999011,18.4657943 22.541867,18 21.9767818,18 Z" id="Shape"></path>
                <g id="Group" transform="translate(6.000000, 0.000000)">
                    <path d="M11.6834502,12.3576749 C11.2613402,11.880775 10.5769858,11.880775 10.1548758,12.3576749 L5.9999902,17.0518648 L1.84515687,12.3576749 C1.42304688,11.8808341 0.73864023,11.880775 0.316582496,12.3576749 C-0.105527499,12.8345748 -0.105527499,13.6077584 0.316582496,14.0846583 L5.23572914,19.6423103 C5.43844855,19.8713427 5.7133923,20 6.00004246,20 C6.28674488,20 6.56163637,19.8713427 6.76435578,19.6423103 L11.6835024,14.0846583 C12.1055079,13.6078175 12.1055079,12.8345748 11.6834502,12.3576749 Z" id="Shape"></path>
                    <path d="M6,0 C5.44768398,0 5,0.449503653 5,1.00395621 L5,16.9960438 C5,17.5505449 5.44773233,18 6,18 C6.55231602,18 7,17.5505449 7,16.9960438 L7,1.00395621 C7,0.449503653 6.55231602,0 6,0 Z" id="Shape"></path>
                </g>
            </g>
        </g>
    </g>
</svg>