<?xml version="1.0" encoding="UTF-8"?>
<svg width="251px" height="296px" viewBox="0 0 251 296" version="1.1" xmlns="http://www.w3.org/2000/svg" xmlns:xlink="http://www.w3.org/1999/xlink">
    <!-- Generator: Sketch 50 (54983) - http://www.bohemiancoding.com/sketch -->
    <title>Group 2</title>
    <desc>Created with Sketch.</desc>
    <defs></defs>
    <g id="Page-1" stroke="none" stroke-width="1" fill="none" fill-rule="evenodd">
        <g id="Desktop-HD-Copy-32" transform="translate(-1162.000000, -398.000000)" fill="#000000" fill-rule="nonzero" stroke="#FFFFFF" stroke-width="7">
            <g id="Group-2" transform="translate(1166.000000, 402.000000)">
                <path d="M67.5,107 C63.359375,107 60,110.355469 60,114.5 L60,125.078125 C60,129.222656 63.359375,132.578125 67.5,132.578125 C71.644531,132.578125 75,129.222656 75,125.078125 L75,114.5 C75,110.359375 71.644531,107 67.5,107 Z" id="Shape"></path>
                <path d="M176.5,107 C172.359375,107 169,110.355469 169,114.5 L169,125.078125 C169,129.222656 172.359375,132.578125 176.5,132.578125 C180.640625,132.578125 184,129.222656 184,125.078125 L184,114.5 C184,110.359375 180.640625,107 176.5,107 Z" id="Shape"></path>
                <path d="M136.901178,129.852977 C133.780084,127.126414 129.041803,127.446727 126.315241,130.563914 C125.350397,131.669383 123.858209,132.306102 122.233209,132.306102 C120.604303,132.306102 119.116022,131.669383 118.147272,130.563914 C115.420709,127.446727 110.682428,127.126414 107.565241,129.852977 C104.444147,132.579539 104.127741,137.317821 106.854303,140.435008 C110.670709,144.802195 116.276178,147.306102 122.233209,147.306102 C128.190241,147.306102 133.795709,144.802195 137.608209,140.438914 C140.338678,137.317821 140.018365,132.579539 136.901178,129.852977 Z" id="Shape"></path>
                <path d="M243.359376,190.589844 L243.359376,118.25 C243.363282,118.121094 243.378907,117.988281 243.378907,117.855468 C243.378907,117.664062 243.371094,117.472656 243.355469,117.285156 C243.050782,54.636718 192.457032,3.171875 127.925782,0.007812 C127.800782,0.003906 127.679688,0 127.558594,0 L115.800782,0 C115.679688,0 115.558594,0.003906 115.433594,0.007812 C50.707032,3.183594 0,54.945312 0,117.855468 L0,190.589844 C0,208.300781 14.414063,222.714844 32.125,222.714844 L65.929688,222.714844 C66.582032,223.039062 67.238282,223.359375 67.894532,223.675781 C55.929688,234.664062 37.511719,255.601562 37.511719,280.410156 C37.511719,284.550781 40.871094,287.910156 45.011719,287.910156 L198.351563,287.910156 C202.496094,287.910156 205.851563,284.550781 205.851563,280.410156 C205.851563,255.601562 187.433594,234.660156 175.46875,223.671875 C176.125,223.355468 176.777344,223.039062 177.429688,222.714844 L211.230469,222.714844 C228.945313,222.714844 243.359376,208.300781 243.359376,190.589844 Z M228.070313,125.253906 C227.25,136.230468 224.621094,147.074218 220.273438,157.1875 C207.585938,186.714844 181.066407,209.351562 148.5625,217.527344 C130.945313,221.960937 112.214844,221.945312 94.605469,217.480468 C62.035157,209.222656 35.496094,186.441406 22.90625,156.765625 C18.539063,146.460937 15.332032,134.246094 15.15625,122.707031 C15.515626,122.542968 24.8125,117.996094 24.839844,117.980468 C46.496094,106.667968 67.007813,92.3125 83.242188,73.910156 C85.523438,71.324218 87.382813,67.40625 90.339844,65.574218 C91.394532,64.917968 92.761719,64.832031 93.875,65.441406 C108.925782,73.707031 124.25,81.492187 139.789063,88.804687 C157.757813,97.257812 176.035157,105.066406 194.628907,112.046875 C205.699219,116.175781 216.875,120.015625 228.191407,123.417968 C228.152344,124.03125 228.113282,124.640625 228.070313,125.253906 Z M140.609376,272.910156 L102.757813,272.910156 L102.757813,234.421875 C102.796876,234.429687 102.839844,234.433594 102.882813,234.4375 C115.335938,236.34375 128.019532,236.253906 140.476563,234.4375 C140.519532,234.433594 140.5625,234.429687 140.609376,234.421875 L140.609376,272.910156 Z M115.988282,15 L127.371094,15 C180.449219,17.6875 222.726563,57.496094 227.839844,107.621094 C206.40625,100.96875 185.488282,92.796875 164.949219,83.777344 C143.21875,74.234375 121.851563,63.824218 101.101563,52.300781 C98.382813,50.804687 95.308594,50.015625 92.214844,50.015625 C85.121094,50.015625 80.164063,54 75.914063,59.316406 C61.285157,77.621094 41.9375,91.597656 21.480469,102.71875 C19.664063,103.707031 15.816407,105.695312 15.730469,105.738281 C21.691407,56.503906 63.574219,17.652344 115.988282,15 Z M32.125,207.714844 C22.683594,207.714844 15,200.03125 15,190.589844 L15,174.65625 C22.070313,187.136718 31.460938,198.359375 42.796876,207.714844 L32.125,207.714844 Z M83.609376,229.949218 C84.0625,230.09375 87.308594,231.0625 87.75,231.1875 L87.75,272.910156 L53.285157,272.910156 C57.339844,252.910156 76.261719,235.90625 83.609376,229.949218 Z M159.753907,229.949218 C167.113282,235.917968 186.023438,252.914062 190.078126,272.910156 L155.609376,272.910156 L155.609376,231.1875 C156.101563,231.050781 159.269532,230.105468 159.753907,229.949218 Z M228.359376,190.589844 C228.359376,200.03125 220.675782,207.714844 211.234376,207.714844 L200.5625,207.714844 C211.902344,198.359375 221.292969,187.136718 228.359376,174.652344 L228.359376,190.589844 Z" id="Shape"></path>
            </g>
        </g>
    </g>
</svg>