<?xml version="1.0" encoding="UTF-8"?>
<svg width="170px" height="379px" viewBox="0 0 170 379" version="1.1" xmlns="http://www.w3.org/2000/svg" xmlns:xlink="http://www.w3.org/1999/xlink">
    <!-- Generator: Sketch 50 (54983) - http://www.bohemiancoding.com/sketch -->
    <title>Stroke 1 Copy 5</title>
    <desc>Created with Sketch.</desc>
    <defs></defs>
    <g id="Page-1" stroke="none" stroke-width="1" fill="none" fill-rule="evenodd">
        <g id="Desktop-HD-Copy-26" transform="translate(-900.000000, -345.000000)" stroke="#000000" stroke-width="7">
            <path d="M982.933027,348.546341 L982.929325,348.546678 C980.219572,348.791798 977.312627,353.382176 974.360761,361.093364 C972.272292,366.540028 955.440538,414.766394 943.236176,450.907057 C924.106474,507.555661 911.126272,549.005757 907.868396,565.494962 C898.424923,613.242368 904.261007,647.072708 923.42154,679.70967 C930.780494,692.240555 942.198529,702.881932 955.519928,710.536111 C966.872362,717.058966 978.68212,720.74696 986.050693,720.487721 C995.164465,720.171957 1005.17663,717.207951 1015.25817,710.79266 C1028.54228,702.339436 1040.8727,688.560922 1051.63577,668.543138 C1062.09235,649.091661 1066.58933,627.298714 1066.45274,604.285113 C1066.36147,588.906361 1064.53767,576.688029 1061.45203,563.188146 C1059.17095,553.225974 997.687899,369.822938 993.497315,358.825668 C992.328708,355.765388 992.252633,355.574792 991.673262,354.388123 C989.568586,350.077321 987.084858,348.166327 982.933027,348.546341 Z M982.29684,341.575311 C982.297457,341.575255 982.298074,341.575199 982.298691,341.575143 L982.294989,341.57548 C982.295606,341.575423 982.296223,341.575367 982.29684,341.575311 Z" id="Stroke-1-Copy-5"></path>
        </g>
    </g>
</svg>