<?xml version="1.0" encoding="UTF-8"?>
<svg width="201px" height="291px" viewBox="0 0 201 291" version="1.1" xmlns="http://www.w3.org/2000/svg" xmlns:xlink="http://www.w3.org/1999/xlink">
    <!-- Generator: Sketch 50 (54983) - http://www.bohemiancoding.com/sketch -->
    <title>Stroke 1 Copy 4</title>
    <desc>Created with Sketch.</desc>
    <defs></defs>
    <g id="Page-1" stroke="none" stroke-width="1" fill="none" fill-rule="evenodd">
        <g id="Desktop-HD-Copy-26" transform="translate(-366.000000, -433.000000)" stroke="#000000" stroke-width="7">
            <path d="M463.481356,436.53949 L463.478999,436.539626 C459.487447,436.767839 456.262673,439.986392 452.705177,445.86019 C451.052435,448.584504 431.023688,487.334525 416.135165,517.02195 C393.743574,561.670344 378.371968,594.386497 374.562448,606.573174 C363.639941,641.478379 370.33768,666.017716 392.589455,689.973846 C401.212482,699.25443 414.721736,707.212132 430.517038,712.948362 C444.118468,717.887864 458.324247,720.691775 467.392042,720.490139 C478.437737,720.248254 490.528913,717.985855 502.624747,713.120937 C518.370071,706.788202 532.895926,696.528943 545.517297,681.692278 C557.613536,667.470202 562.779034,651.64836 562.621949,634.920136 C562.516802,623.722781 560.410477,614.803908 556.838778,604.927239 C554.078868,597.308956 480.418327,449.924972 476.948908,444.170347 C475.603611,441.943653 475.522727,441.815573 474.88024,440.983833 C472.413985,437.791114 469.164186,436.210734 463.481356,436.53949 Z M463.078255,429.551106 C463.078648,429.551084 463.079041,429.551061 463.079434,429.551039 L463.077076,429.551175 C463.077469,429.551152 463.077862,429.551129 463.078255,429.551106 Z" id="Stroke-1-Copy-4"></path>
        </g>
    </g>
</svg>